<mxfile host="app.diagrams.net" modified="2022-05-29T05:20:51.669Z" agent="5.0 (Macintosh; Intel Mac OS X 10_15_7) AppleWebKit/537.36 (KHTML, like Gecko) Chrome/102.0.5005.61 Safari/537.36" etag="8Ftip5Ru2GlIIRwdgKyV" version="18.0.2" type="github">
  <diagram id="kEu2Iwg-DOZfXtat1dnF" name="第 1 页">
    <mxGraphModel dx="2605" dy="1500" grid="1" gridSize="10" guides="1" tooltips="1" connect="1" arrows="1" fold="1" page="1" pageScale="1" pageWidth="827" pageHeight="1169" math="0" shadow="0">
      <root>
        <mxCell id="0" />
        <mxCell id="1" parent="0" />
        <mxCell id="eMsD3PcmHDbnyyfI_0Gr-1" value="" style="rounded=0;whiteSpace=wrap;html=1;" vertex="1" parent="1">
          <mxGeometry x="84" y="20" width="660" height="1140" as="geometry" />
        </mxCell>
        <mxCell id="eMsD3PcmHDbnyyfI_0Gr-2" value="Fil Header" style="rounded=0;whiteSpace=wrap;html=1;fontStyle=1;fontSize=20;" vertex="1" parent="1">
          <mxGeometry x="94" y="30" width="640" height="150" as="geometry" />
        </mxCell>
        <mxCell id="eMsD3PcmHDbnyyfI_0Gr-3" value="Page Header" style="rounded=0;whiteSpace=wrap;html=1;fontStyle=1;fontSize=20;" vertex="1" parent="1">
          <mxGeometry x="94" y="190" width="640" height="150" as="geometry" />
        </mxCell>
        <mxCell id="eMsD3PcmHDbnyyfI_0Gr-4" value="Infimum + Supremum Records" style="rounded=0;whiteSpace=wrap;html=1;fontStyle=1;fontSize=20;" vertex="1" parent="1">
          <mxGeometry x="94" y="350" width="640" height="150" as="geometry" />
        </mxCell>
        <mxCell id="eMsD3PcmHDbnyyfI_0Gr-5" value="User Records" style="rounded=0;whiteSpace=wrap;html=1;fontStyle=1;fontSize=20;" vertex="1" parent="1">
          <mxGeometry x="94" y="510" width="640" height="150" as="geometry" />
        </mxCell>
        <mxCell id="eMsD3PcmHDbnyyfI_0Gr-6" value="Free Spacce" style="rounded=0;whiteSpace=wrap;html=1;fontStyle=1;fontSize=20;" vertex="1" parent="1">
          <mxGeometry x="94" y="670" width="640" height="150" as="geometry" />
        </mxCell>
        <mxCell id="eMsD3PcmHDbnyyfI_0Gr-7" value="Page Directory" style="rounded=0;whiteSpace=wrap;html=1;fontStyle=1;fontSize=20;" vertex="1" parent="1">
          <mxGeometry x="94" y="830" width="640" height="150" as="geometry" />
        </mxCell>
        <mxCell id="eMsD3PcmHDbnyyfI_0Gr-8" value="Fil Trailer" style="rounded=0;whiteSpace=wrap;html=1;fontStyle=1;fontSize=20;" vertex="1" parent="1">
          <mxGeometry x="94" y="990" width="640" height="150" as="geometry" />
        </mxCell>
      </root>
    </mxGraphModel>
  </diagram>
</mxfile>
